<svg width="914" height="132" viewBox="0 0 914 132" fill="none" xmlns="http://www.w3.org/2000/svg">
<path d="M40.0313 38.1105C31.7306 52.614 34.423 67.9456 48.6002 86.0869C48.6002 86.0869 38.3025 82.1462 28.9134 73.5795C21.9151 67.1942 15.2331 57.738 14.7077 48.114C13.4772 25.5782 30.5916 2.92972 59.2267 1.57756C70.3938 1.05025 83.3376 4.58546 89.6517 9.23973C99.5286 16.5202 99.4951 26.4796 99.4951 26.4796C95.58 24.1134 92.5727 22.2632 88.6449 20.9584C76.3533 16.875 64.9337 17.3609 52.2319 25.5795C47.2819 28.7824 42.9599 32.9935 40.0313 38.1105Z" fill="white"/>
<path d="M7.77275 31.7755C14.1324 21.2189 20.8598 14.8736 30.3678 9.12695C21.9126 17.7146 16.6904 24.8685 14.2456 32.1123C7.15932 53.1085 23.5412 75.6116 43.0079 86.1995C60.842 94.9744 83.6117 99.1575 83.6117 99.1575C83.6117 99.1575 64.8505 110.183 47.7056 108.961C30.5607 107.738 16.2311 100.904 6.76598 84.7346C-2.69914 68.5657 -2.1144 48.1872 7.77275 31.7755Z" fill="white"/>
<path d="M79.7472 53.1244C83.1022 50.8453 88.0513 50.4042 95.356 50.368C98.2544 42.7503 99.5889 38.1859 99.7184 27.7195C92.951 27.6039 88.7499 27.396 82.7161 28.7336C82.5345 28.7895 82.3543 28.8455 82.1757 28.9017C62.1897 35.1861 50.7578 65.1508 68.0629 76.9603C75.4848 78.6624 79.5557 78.7158 86.6312 76.9603C80.6308 75.5558 77.4681 73.571 75.9856 69.8358C73.726 64.143 74.6809 56.566 79.7472 53.1244Z" fill="white"/>
<path d="M96.923 52.8466C100.161 45.7855 101.304 41.7346 102.292 34.3672C102.199 25.3529 101.261 15.4394 94.0144 9.57772C84.9041 2.20824 69.0703 0 69.0703 0C70.5245 -1.76504e-05 81.1757 0.163608 91.2182 5.0706C101.364 10.0282 114.82 21.4092 118.511 27.6065C122.202 33.8037 123.097 39.325 122.762 46.0859C122.427 52.8467 119.405 57.7559 114.373 63.6637C107.98 63.7699 103.956 59.3118 96.923 52.8466Z" fill="white"/>
<path d="M46.3634 128.229C32.4932 122.933 26.3556 117.688 14.9316 105.468C28.3421 113.778 37.9469 117.261 53.8578 118.651C70.1991 120.078 82.2166 117.417 95.2448 112.116C108.863 105.629 114.778 100.912 122.09 90.4814C130.648 76.3379 130.81 71.1525 131.934 61.4102C132.327 77.0615 131.078 85.3499 125.222 98.9323C118.023 112.469 111.8 119.327 95.2448 126.426C78.69 133.525 60.2337 133.525 46.3634 128.229Z" fill="white"/>
<path d="M120.86 59.3819C124.146 54.6379 125.133 50.7081 125.782 42.0293C126.381 42.8459 126.841 43.5468 127.25 44.2598C128.503 46.4407 129.234 49.981 129.337 52.4939C129.726 61.9381 128.974 71.9831 124.927 80.5253C120.918 88.9882 114.208 98.958 105.424 103.665C94.4035 110.37 87.6377 113.226 73.8803 115.721C62.0076 117.261 56.1148 117.15 46.9229 115.271L52.2554 114.88C60.9906 114.24 69.7354 113.144 78.0707 110.454C92.3598 105.843 100.979 99.7802 108.511 87.3214C110.94 83.3042 112.986 78.8776 113.068 74.184C113.108 71.8726 112.739 69.5017 111.912 66.368C114.338 66.368 116.714 65.406 118.16 63.4578C119.041 62.2698 119.827 61.0323 120.86 59.3819Z" fill="white"/>
<rect x="174.929" y="16.4209" width="113.22" height="16.4213" fill="white"/>
<rect x="676.21" y="16.4209" width="113.22" height="16.4213" fill="white"/>
<rect x="676.21" y="57.9062" width="113.22" height="16.4213" fill="white"/>
<rect x="676.21" y="95.9346" width="113.22" height="16.4213" fill="white"/>
<path d="M174.929 110.627V55.3135H288.149V71.7348H191.35V110.627H174.929Z" fill="white"/>
<path d="M300.249 110.627V16.4209H316.67V110.627H300.249Z" fill="white"/>
<path d="M327.042 16.4209V110.627H343.463V32.8422H375.017C387.944 32.8422 401.898 32.1523 412.672 39.2964C414.333 40.3985 415.751 41.6219 416.982 42.9935C423.972 50.776 423.841 62.3509 423.841 72.8111V110.627H440.262V67.4026C440.262 60.5105 439.848 53.5598 437.89 46.9517C433.466 32.021 425.854 24.0643 408.821 19.3581C399.415 16.7592 389.556 16.4209 379.797 16.4209H327.042Z" fill="white"/>
<path d="M470.08 110.627H453.227C453.227 110.627 494.28 29.3855 499.033 22.4711C503.787 15.5568 515.455 15.1246 520.64 22.4711C525.826 29.8176 566.447 110.627 566.447 110.627H549.161C549.161 110.627 513.294 38.8926 511.997 37.1638C510.701 35.4351 508.972 35.4351 507.676 37.1638C506.38 38.8926 470.08 110.627 470.08 110.627Z" fill="white"/>
<path d="M550.89 33.2743V16.4209H662.814V33.2743H615.278V112.788H599.721V33.2743H550.89Z" fill="white"/>
<path d="M913.886 17.2852V33.2743C913.886 33.2743 868.622 32.8596 850.794 33.2743C832.966 33.6891 817.952 46.6706 817.952 58.7705C817.952 70.8705 817.641 59.4677 817.952 70.4383C818.263 81.4088 833.076 96.7988 850.794 96.7988H913.886V112.788C913.886 112.788 884.501 112.356 849.066 112.356C813.63 112.356 800.664 87.2917 800.666 70.0061C800.666 69.0161 800.666 68.1764 800.666 67.4687C800.666 66.6048 800.666 64.1474 800.666 58.7705C800.666 36.2993 820.112 17.2852 842.583 17.2852L913.886 17.2852Z" fill="white"/>
</svg>
