<svg width="1920" height="1200" viewBox="0 0 1920 1200" fill="none" xmlns="http://www.w3.org/2000/svg">
<path d="M598.272 127.663C382.439 390.11 398.647 663.524 658.993 996.665C658.993 996.665 495.631 934.151 346.685 798.251C235.665 696.956 129.665 546.945 121.329 394.272C101.81 36.7693 373.308 -322.521 827.569 -343.971C1004.72 -352.336 1210.06 -296.255 1310.22 -222.42C1466.91 -106.925 1466.38 51.0694 1466.38 51.0694C1404.27 13.5316 1356.56 -15.8197 1294.25 -36.5188C1065.78 -112.417 856.308 -88.805 610.851 115.042C606.315 118.809 602.017 123.109 598.272 127.663Z" fill="white" fill-opacity="0.17"/>
<path d="M11.3052 135.084C112.194 -32.3824 218.914 -133.044 369.748 -224.207C70.1228 80.1125 26.4147 270.94 158.086 617.688C167.571 642.665 181.087 666 197.846 686.808C314.411 831.541 398.56 905.063 570.267 998.453C853.183 1137.66 1214.4 1204.02 1214.4 1204.02C1214.4 1204.02 916.773 1378.93 644.791 1359.53C372.808 1340.14 145.486 1231.72 -4.66602 975.216C-154.819 718.715 -145.542 395.436 11.3052 135.084Z" fill="white" fill-opacity="0.17"/>
<path d="M1078.61 585.57C1120.85 449.24 1210.37 430.969 1400.7 430.026C1446.68 309.181 1467.85 236.771 1469.9 70.7354C1362.54 68.9021 1295.9 65.604 1200.18 86.8227C1018.73 142.637 934.168 206.537 840.74 378.472C830.634 397.068 823.981 417.53 821.147 438.505C791.977 654.422 827.938 756.485 967.725 851.88C1085.46 878.882 1150.04 879.729 1262.29 851.88C1111.78 816.651 1073.82 758.41 1075.8 603.77C1075.88 597.646 1076.8 591.42 1078.61 585.57Z" fill="white" fill-opacity="0.17"/>
<path d="M1425.56 469.346C1476.92 357.331 1495.05 293.069 1510.73 176.193C1509.25 33.1928 1494.37 -124.073 1379.41 -217.061C1234.89 -333.969 983.706 -369 983.706 -369C1006.77 -369 1175.74 -366.405 1335.06 -288.561C1496.01 -209.916 1709.48 -29.3691 1768.03 68.9427C1826.58 167.255 1840.78 254.843 1835.46 362.095C1830.14 469.348 1782.21 547.226 1702.37 640.946C1600.95 642.631 1537.12 571.909 1425.56 469.346Z" fill="white" fill-opacity="0.17"/>
<path d="M623.485 1665.17C403.451 1581.16 306.085 1497.95 124.859 1304.1C337.6 1435.93 489.968 1491.19 742.375 1513.23C1001.61 1535.88 1192.25 1493.66 1398.93 1409.56C1614.97 1306.66 1708.8 1231.82 1824.8 1066.36C1960.56 841.987 1963.13 759.728 1980.96 605.177C1987.19 853.466 1967.38 984.951 1874.49 1200.42C1760.28 1415.16 1661.55 1523.96 1398.93 1636.57C1136.31 1749.19 843.52 1749.19 623.485 1665.17Z" fill="white" fill-opacity="0.17"/>
<path d="M1805.28 573.016C1857.4 497.758 1873.07 435.417 1883.36 297.739C1902.86 324.318 1913.05 343.169 1926.16 371.815C1930.79 381.934 1933.95 392.651 1935.24 403.704C1943.37 473.278 1941.01 559.624 1937.79 617.92C1935.48 659.677 1939.5 707.744 1929.52 748.356C1897.44 878.88 1764.08 1166.38 1560.41 1275.51C1385.58 1381.88 1278.25 1427.19 1060 1466.77C871.658 1491.2 778.177 1489.44 632.357 1459.62L912.021 1439.13C920.757 1438.49 929.564 1437.13 938.079 1435.08C1323.34 1342.31 1498.31 1242.95 1660.1 924.391C1662.22 920.206 1663.96 915.712 1665.15 911.173C1686.95 828.444 1688.12 777.726 1663.33 683.842H1714.97C1720.51 683.842 1725.82 681.546 1729.55 677.447C1761.1 642.795 1777.59 617.258 1805.28 573.016Z" fill="white" fill-opacity="0.17"/>
</svg>
