<svg width="463" height="463" viewBox="0 0 463 463" fill="none" xmlns="http://www.w3.org/2000/svg">
<path d="M152.756 115.22C109.598 171.606 114.692 230.583 170.472 301.959C170.472 301.959 134.352 288.137 101.419 258.089C76.8713 235.691 53.4337 202.523 51.5906 168.766C47.2747 89.7192 107.305 10.2774 207.746 5.53455C246.915 3.68495 292.317 16.085 314.464 32.4104C349.108 57.9473 348.991 92.881 348.991 92.881C335.258 84.5811 324.71 78.0914 310.933 73.5146C262.089 57.2884 217.17 61.6323 165.191 102.681C160.564 106.335 156.34 110.538 152.756 115.22Z" fill="white"/>
<path d="M27.2637 111.457C49.571 74.4285 73.1677 52.1715 106.518 32.0146C49.3746 90.0535 34.3302 129.423 49.9573 188.349C56.8059 214.174 70.5611 237.865 89.0952 257.108C106.247 274.916 123.54 287.498 150.854 302.354C213.409 333.133 293.276 347.806 293.276 347.806C293.276 347.806 227.47 386.48 167.332 382.191C107.195 377.903 56.9322 353.93 23.7324 297.216C-9.4675 240.502 -7.41647 169.022 27.2637 111.457Z" fill="white"/>
<path d="M265.702 204.318C275.902 180.298 295.752 176.863 334.469 176.671C344.635 149.951 349.316 133.941 349.77 97.2294C326.033 96.824 311.297 96.0948 290.133 100.786C258.506 110.515 240.191 121.355 223.735 144.132C211.34 161.288 204.609 182.166 204.266 203.328C203.755 234.86 213.735 252.886 238.735 269.946C264.768 275.917 279.047 276.104 303.865 269.946C273.024 262.727 263.555 251.138 262.684 222.261C262.5 216.139 263.308 209.956 265.702 204.318Z" fill="white"/>
<path d="M339.965 185.365C351.322 160.597 355.331 146.388 358.797 120.546C358.47 88.9279 355.18 54.1553 329.763 33.5948C297.808 7.74563 242.269 0 242.269 0C247.37 -6.19106e-05 284.73 0.573871 319.955 17.7857C355.543 35.1748 402.742 75.095 415.689 96.8325C428.635 118.57 431.774 137.936 430.598 161.651C429.422 185.365 418.824 202.584 401.172 223.307C378.747 223.679 364.633 208.042 339.965 185.365Z" fill="white"/>
<path d="M162.621 449.771C113.97 431.195 92.4416 412.796 52.3711 369.934C99.4098 399.084 133.099 411.301 188.909 416.176C246.227 421.182 288.38 411.848 334.078 393.252C381.845 370.5 402.592 353.953 428.241 317.368C458.259 267.758 458.828 249.57 462.768 215.397C464.146 270.296 459.767 299.368 439.227 347.01C413.975 394.492 392.145 418.547 334.078 443.447C276.01 468.347 211.272 468.347 162.621 449.771Z" fill="white"/>
<path d="M423.926 208.287C435.45 191.647 438.914 177.863 441.19 147.421C443.291 150.285 444.904 152.744 446.34 155.245C450.734 162.894 453.296 175.312 453.66 184.127C455.024 217.253 452.385 252.487 438.19 282.449C424.127 312.134 400.594 347.104 369.782 363.613C331.127 387.133 307.395 397.152 259.14 405.903C217.495 411.305 196.825 410.915 164.583 404.322L216.197 400.541C224.932 399.901 233.642 398.592 242.131 396.437C318.528 377.043 355.644 354.73 389.306 290.85C391.494 286.697 393.216 282.298 394.26 277.721C397.756 262.405 397.467 251.456 392.538 232.791H397.187C402.731 232.791 408.107 230.556 411.603 226.254C415.998 220.849 419.234 215.782 423.926 208.287Z" fill="white"/>
</svg>
